<?xml version="1.0" encoding="UTF-8"?>
<svg width="45px" height="50px" viewBox="0 0 45 50" version="1.1" xmlns="http://www.w3.org/2000/svg" xmlns:xlink="http://www.w3.org/1999/xlink">
    <title>EFF65DCA-CF6A-44CE-AFA5-56E523FD84F4@1x</title>
    <g id="Page-1" stroke="none" stroke-width="1" fill="none" fill-rule="evenodd">
        <g id="tixxly-home" transform="translate(-130.000000, -830.000000)" fill-rule="nonzero">
            <g id="Icon-Map" transform="translate(130.000000, 830.000000)">
                <g id="008-map-copy" transform="translate(27.707162, 28.688731)" fill="#485460">
                    <g id="Group" transform="translate(0.684932, 0.793231)">
                        <path d="M4.46187656,0.190035278 C2.09235067,0.190035278 0.16458622,2.12176904 0.16458622,4.49617385 C0.16458622,6.87057866 2.09235067,8.80231242 4.46187656,8.80231242 C6.83140245,8.80231242 8.7591669,6.87057866 8.7591669,4.49617385 C8.7591669,2.12176904 6.83140245,0.190035278 4.46187656,0.190035278 Z M4.46187656,7.07985699 C3.04033292,7.07985699 1.88350236,5.92064449 1.88350236,4.49617385 C1.88350236,3.07170321 3.04033292,1.91249071 4.46187656,1.91249071 C5.8834202,1.91249071 7.04025076,3.07170321 7.04025076,4.49617385 C7.04025076,5.92064449 5.8834202,7.07985699 4.46187656,7.07985699 Z" id="Shape"></path>
                    </g>
                </g>
                <path d="M43.2317525,49.9347665 C43.3438345,49.9347665 43.4567853,49.9141012 43.564523,49.8693266 C43.8894738,49.7367246 44.100605,49.4215797 44.100605,49.0737149 L44.100605,11.1874447 C44.100605,10.958405 44.0093755,10.7396979 43.8460312,10.5786813 L33.4198017,0.246062127 C33.4102443,0.236590559 33.3980804,0.231424249 33.388523,0.222813734 C33.3563755,0.193537979 33.3207525,0.170289586 33.2842607,0.146180142 C33.2477689,0.121209645 33.2112771,0.0979612523 33.1713099,0.0790181173 C33.1591459,0.0738518077 33.1504574,0.0643802402 33.1374246,0.0592139306 C33.1122279,0.0488813115 33.0861623,0.0480202599 33.0600968,0.0402707955 C33.0166541,0.02649397 32.9740804,0.0144392477 32.9297689,0.00755083495 C32.8871951,0.00152347379 32.8454902,0.000379629493 32.8029164,0.00152347379 C32.7620804,0.00152347379 32.722982,0.00152347379 32.6821459,0.00755083495 C32.6360968,0.0144392477 32.5926541,0.0273550216 32.5483427,0.0411318471 C32.5231459,0.0488813115 32.4970804,0.0497423631 32.4727525,0.0600749822 C32.4605886,0.0652412918 32.4510312,0.0747128593 32.4397361,0.0798791689 C32.4006377,0.0979612523 32.3650148,0.122070697 32.328523,0.146180142 C32.2920312,0.170289586 32.2555394,0.194399031 32.2233918,0.223674785 C32.2138345,0.232285301 32.2016705,0.237451611 32.1921132,0.246923178 L22.3792935,9.96991778 L12.5673427,0.246062127 C12.5577853,0.236590559 12.5456214,0.231424249 12.536064,0.222813734 C12.5039164,0.193537979 12.4674246,0.169428535 12.4309328,0.14531909 C12.394441,0.121209645 12.3588181,0.0979612523 12.3197197,0.0790181173 C12.3075558,0.0729907561 12.2979984,0.0635191886 12.2858345,0.0592139306 C12.2606377,0.0488813115 12.2337033,0.0480202599 12.2076377,0.0394097439 C12.165064,0.02649397 12.1224902,0.0135781961 12.0781787,0.00668978335 C12.035605,0.000379629493 11.9939,-0.000198629402 11.9513263,0.000379629493 C11.9104902,0.000379629493 11.8713918,0.000379629493 11.8305558,0.00668978335 C11.7845066,0.0135781961 11.7401951,0.02649397 11.6958836,0.0402707955 C11.6706869,0.0480202599 11.6454902,0.0488813115 11.6211623,0.0592139306 C11.6089984,0.0643802402 11.6003099,0.0729907561 11.5881459,0.0790181173 C11.5481787,0.0979612523 11.5116869,0.122070697 11.4743263,0.146180142 C11.4378345,0.170289586 11.4022115,0.193537979 11.370064,0.222813734 C11.3605066,0.231424249 11.3474738,0.236590559 11.3387853,0.246062127 L0.912555781,10.5786813 C0.749211519,10.7396979 0.657982011,10.958405 0.657982011,11.1874447 L0.657982011,49.0737149 C0.657982011,49.4215797 0.869113158,49.7367246 1.19406398,49.8693266 C1.30180168,49.9141012 1.4147525,49.9347665 1.52683447,49.9347665 C1.75273611,49.9347665 1.97516234,49.8469392 2.14111316,49.6824784 L11.953064,39.9586227 L21.7650148,49.6824784 C21.7728345,49.6902278 21.7832607,49.7255309 21.7910804,49.7324194 C21.8658017,49.8013035 21.9492115,49.9347665 22.046523,49.9347665 C22.0473918,49.9347665 22.0473918,49.9347665 22.0473918,49.9347665 C22.1533918,49.9347665 22.2654738,50.0002064 22.3784246,50.0002064 C22.4913755,50.0002064 22.6051951,49.9347665 22.7103263,49.9347665 C22.7103263,49.9347665 22.7111951,49.9347665 22.712064,49.9347665 C22.8102443,49.9347665 22.8927853,49.8013035 22.9675066,49.7324194 C22.9753263,49.7255309 22.9857525,49.7065878 22.9935722,49.6988383 L29.2571296,43.4829069 C30.5925558,45.6777274 31.7976541,47.4256621 32.0895886,47.8449943 C32.2529328,48.0783392 32.5196705,48.2143854 32.8046541,48.2143854 C33.0896377,48.2143854 33.3572443,48.074895 33.5197197,47.84155 C33.8116541,47.4222179 35.0167525,45.6691169 36.3521787,43.4751574 L42.6157361,49.6824784 C42.7834246,49.8478003 43.0058509,49.9347665 43.2317525,49.9347665 Z M2.39568693,11.5439201 L11.0842115,2.93340415 L11.0842115,38.3846204 L2.39568693,46.9951363 L2.39568693,11.5439201 Z M12.8219164,2.93340415 L21.510441,11.5439201 L21.510441,46.9951363 L12.8219164,38.3846204 L12.8219164,2.93340415 Z M23.2481459,46.9951363 L23.2481459,11.5439201 L31.9366705,2.93340415 L31.9366705,25.8735407 C31.768982,25.8916228 31.6056377,25.9226207 31.4414246,25.9518964 C31.3675722,25.9648122 31.2928509,25.9717006 31.2198673,25.9871995 C30.9765886,26.0371405 30.738523,26.0982752 30.5039328,26.1697425 C30.4187853,26.195574 30.3371132,26.2300161 30.2537033,26.2584308 C30.1042607,26.3100939 29.9539492,26.3600349 29.8088509,26.4203085 C29.7124082,26.4599169 29.6211787,26.5072747 29.5264738,26.5503273 C29.3987525,26.6088788 29.2701623,26.6665692 29.1459164,26.7320092 C29.0494738,26.7828112 28.9582443,26.8396406 28.8644082,26.8938869 C28.747982,26.9619099 28.6306869,27.029072 28.5177361,27.1022614 C28.4256377,27.162535 28.3378836,27.2271138 28.2492607,27.2899706 C28.1406541,27.3674652 28.0329164,27.4449599 27.9286541,27.5276208 C27.8426377,27.5956439 27.7600968,27.6679722 27.6766869,27.7394395 C27.5767689,27.8255447 27.4777197,27.913372 27.3830148,28.0037824 C27.3039492,28.0795549 27.2266214,28.1579106 27.1510312,28.2371274 C27.0598017,28.331843 26.9703099,28.4291419 26.8842935,28.5281628 C26.8121787,28.6108237 26.7426705,28.6952068 26.6740312,28.781312 C26.5914902,28.8846382 26.5124246,28.9905475 26.4350968,29.0981789 C26.3716705,29.1868673 26.3091132,29.2755556 26.2491623,29.366827 C26.1753099,29.4787638 26.1066705,29.5932836 26.0389,29.7095256 C25.9841623,29.8033802 25.9302935,29.8963738 25.8790312,29.9919505 C25.815605,30.1124977 25.7573918,30.2356281 25.7000476,30.3604806 C25.6548673,30.4569184 25.6096869,30.5533561 25.5688509,30.6523771 C25.514982,30.7823959 25.4689328,30.9158589 25.4220148,31.0493219 C25.3881296,31.1474817 25.3507689,31.2447806 25.3203591,31.3446626 C25.2769164,31.4867361 25.2430312,31.6322538 25.2074082,31.7777715 C25.1839492,31.8733482 25.1570148,31.9680639 25.1379,32.0645017 C25.1048836,32.2281015 25.0831623,32.3942844 25.061441,32.5613285 C25.0501459,32.6439894 25.0345066,32.7249283 25.0258181,32.8093113 C24.9997525,33.0607384 24.9858509,33.3164707 24.9858509,33.5747862 C24.9858509,33.8081312 25.0119164,34.0673077 25.0544902,34.3411221 C25.0640476,34.3996736 25.0796869,34.4625304 25.0901132,34.5219429 C25.1309492,34.7458164 25.1822115,34.9791613 25.2491132,35.2288663 C25.2656214,35.290001 25.2864738,35.3545798 25.3047197,35.4165755 C25.3759656,35.6645584 25.4585066,35.9228739 25.5549492,36.1958272 C25.5827525,36.2733219 25.6131623,36.3525386 25.6418345,36.4308943 C25.733064,36.676294 25.8312443,36.9294432 25.9415886,37.1946471 C25.9989328,37.3332764 26.0606214,37.4736278 26.1223099,37.6139792 C26.2083263,37.8085769 26.2934738,38.0040356 26.3890476,38.2089659 C26.5167689,38.4853634 26.6523099,38.7634831 26.7913263,39.0441859 C26.8286869,39.1182363 26.8625722,39.1897036 26.9008017,39.2654762 C27.3517361,40.1626919 27.8443755,41.0659351 28.3465722,41.9390414 L23.2481459,46.9951363 Z M32.805523,45.8120514 C31.4457689,43.7739423 29.4274246,40.5406936 28.0937361,37.7638022 C28.058982,37.6914739 28.0285722,37.6251729 27.9964246,37.5554277 C27.9199656,37.39355 27.846982,37.2342555 27.7757361,37.076683 C27.7244738,36.9621632 27.6740804,36.8493654 27.6271623,36.7408729 C27.5767689,36.6246309 27.5298509,36.5109721 27.4838017,36.3973133 C27.4073427,36.2121872 27.3378345,36.0356716 27.2752771,35.8686276 C27.240523,35.7756341 27.2057689,35.6835015 27.1736214,35.5922301 C27.1353918,35.4845986 27.0980312,35.3778282 27.0658836,35.2788073 C27.0163591,35.1264012 26.9729164,34.9800224 26.9329492,34.8362268 C26.9120968,34.7621763 26.8938509,34.689848 26.8764738,34.6209639 C26.8382443,34.4642525 26.8052279,34.3127074 26.7817689,34.1689118 C26.7756869,34.1327476 26.769605,34.0974445 26.7643918,34.0630024 C26.7391951,33.88907 26.7235558,33.7246092 26.7235558,33.5747862 C26.7235558,30.2519881 29.4526214,27.547425 32.805523,27.547425 C36.1584246,27.547425 38.8874902,30.2519881 38.8874902,33.5747862 C38.8874902,33.7246092 38.8718509,33.88907 38.8466541,34.0630024 C38.841441,34.0965835 38.8353591,34.1318866 38.8292771,34.1671897 C38.8049492,34.3118463 38.7728017,34.4642525 38.7337033,34.6218249 C38.7171951,34.6889869 38.6989492,34.7587321 38.6789656,34.8301994 C38.6389984,34.9757171 38.5946869,35.1264012 38.5434246,35.2813904 C38.5130148,35.3761061 38.476523,35.4777102 38.4409,35.5793143 C38.4052771,35.6809184 38.3670476,35.7842446 38.3270804,35.8892929 C38.2723427,36.0356716 38.211523,36.1880778 38.1463591,36.3482334 C38.0916214,36.4825574 38.0351459,36.6177425 37.9751951,36.7563718 C37.9334902,36.8528096 37.8891787,36.9518305 37.8448673,37.0525736 C37.7623263,37.2368386 37.6771787,37.4236868 37.5868181,37.6131182 C37.5659656,37.6578928 37.5468509,37.7000844 37.5251296,37.7448591 C36.1923099,40.5260557 34.1678836,43.7696371 32.805523,45.8120514 Z M42.3629,46.9951363 L37.263605,41.9407635 C37.7658017,41.0685182 38.2575722,40.1661361 38.7085066,39.2689204 C38.747605,39.1914257 38.7823591,39.1182363 38.8205886,39.0416028 C38.9587361,38.762622 39.0934082,38.4853634 39.2202607,38.210688 C39.3158345,38.0057577 39.4018509,37.810299 39.4869984,37.6148403 C39.5486869,37.4744889 39.6103755,37.3341374 39.6677197,37.1955081 C39.7789328,36.9303042 39.8762443,36.6771551 39.9674738,36.4317554 C39.9970148,36.3533997 40.0274246,36.2741829 40.0543591,36.1966883 C40.1516705,35.9228739 40.2333427,35.6645584 40.3045886,35.4157145 C40.3228345,35.3537188 40.3428181,35.290001 40.3593263,35.2297273 C40.4270968,34.9791613 40.4783591,34.7449553 40.5183263,34.5210819 C40.5296214,34.4616693 40.5452607,34.3988126 40.5539492,34.3411221 C40.5991296,34.0673077 40.6251951,33.8081312 40.6251951,33.5747862 C40.6251951,33.3164707 40.6112935,33.0607384 40.5860968,32.8093113 C40.5774082,32.7257893 40.5617689,32.6448505 40.5504738,32.5613285 C40.5278836,32.3942844 40.5061623,32.2281015 40.4740148,32.0645017 C40.4549,31.9672029 40.4279656,31.8733482 40.4045066,31.7777715 C40.3697525,31.6322538 40.3349984,31.4867361 40.2915558,31.3446626 C40.2611459,31.2447806 40.2246541,31.1483428 40.1907689,31.0501829 C40.1438509,30.9167199 40.0978017,30.7832569 40.0439328,30.6532381 C40.0030968,30.5542172 39.9570476,30.4577794 39.9127361,30.3613416 C39.8553918,30.2373502 39.7971787,30.1142198 39.7337525,29.9936726 C39.6833591,29.8980959 39.6286214,29.8042413 39.5738836,29.7112477 C39.5061132,29.5950057 39.4374738,29.4804859 39.3636214,29.3685491 C39.3036705,29.2772777 39.241982,29.1885894 39.1776869,29.099901 C39.1003591,28.9922696 39.0212935,28.8863603 38.9387525,28.7830341 C38.8701132,28.6969289 38.800605,28.6125458 38.7284902,28.5298849 C38.641605,28.4300029 38.552982,28.3335651 38.4617525,28.2388495 C38.3852935,28.1596327 38.3088345,28.081277 38.2297689,28.0055045 C38.1341951,27.914233 38.0360148,27.8272668 37.9360968,27.7411616 C37.8526869,27.6696944 37.7701459,27.597366 37.6841296,27.5293429 C37.5798673,27.446682 37.4721296,27.3691873 37.363523,27.2916927 C37.2749,27.2279749 37.1862771,27.163396 37.0950476,27.1039835 C36.9820968,27.029933 36.8648017,26.962771 36.7483755,26.8947479 C36.6545394,26.8405017 36.5633099,26.7836723 36.4677361,26.7337313 C36.3434902,26.6682913 36.2149,26.6106009 36.0871787,26.5520494 C35.9924738,26.5089968 35.9012443,26.461639 35.8048017,26.4220306 C35.6597033,26.361757 35.5093918,26.311816 35.3608181,26.2601529 C35.2765394,26.2308771 35.1948673,26.1972961 35.1097197,26.1714646 C34.8751296,26.0999973 34.637064,26.0388626 34.3937853,25.9889216 C34.3208017,25.9742838 34.2452115,25.9665343 34.1722279,25.9536185 C34.0080148,25.9252038 33.8438017,25.894206 33.676982,25.8752628 L33.676982,2.93340415 L42.3655066,11.5439201 L42.3655066,46.9951363 L42.3629,46.9951363 Z" id="Shape-Copy" fill="#4B5563"></path>
            </g>
        </g>
    </g>
</svg>