<?xml version="1.0" encoding="UTF-8"?>
<svg width="65px" height="65px" viewBox="0 0 65 65" version="1.1" xmlns="http://www.w3.org/2000/svg" xmlns:xlink="http://www.w3.org/1999/xlink">
    <title>53F50701-20BE-42F7-806A-0CCEA520AAAF@1x</title>
    <g id="Page-1" stroke="none" stroke-width="1" fill="none" fill-rule="evenodd">
        <g id="tixxly-home" transform="translate(-978.000000, -829.000000)" fill="#4B5563" fill-rule="nonzero">
            <g id="Icon_Beach" transform="translate(978.000000, 829.000000)">
                <path d="M63.8793103,8.96551724 L60.4040517,8.96551724 C60.2583621,8.25163793 59.9737069,7.58818966 59.5837069,7.00094828 L62.0458621,4.5387931 C62.4840517,4.10060345 62.4840517,3.39232759 62.0458621,2.95413793 C61.6076724,2.51594828 60.8993966,2.51594828 60.4612069,2.95413793 L57.9990517,5.4162931 C57.4118103,5.0262931 56.7483621,4.74163793 56.0344828,4.59594828 L56.0344828,1.12068966 C56.0344828,0.500948276 55.5335345,0 54.9137931,0 C54.2940517,0 53.7931034,0.500948276 53.7931034,1.12068966 L53.7931034,4.59594828 C53.0792241,4.74163793 52.4157759,5.0262931 51.8285345,5.4162931 L49.3663793,2.95413793 C48.9281897,2.51594828 48.2199138,2.51594828 47.7817241,2.95413793 C47.3435345,3.39232759 47.3435345,4.10060345 47.7817241,4.5387931 L50.2438793,7.00094828 C49.8538793,7.58818966 49.5692241,8.25163793 49.4235345,8.96551724 L45.9482759,8.96551724 C45.3285345,8.96551724 44.8275862,9.46646552 44.8275862,10.0862069 C44.8275862,10.7059483 45.3285345,11.2068966 45.9482759,11.2068966 L49.4235345,11.2068966 C49.5692241,11.9207759 49.8538793,12.5842241 50.2438793,13.1714655 L47.7817241,15.6336207 C47.3435345,16.0718103 47.3435345,16.7800862 47.7817241,17.2182759 C48.0002586,17.4368103 48.2871552,17.5466379 48.5740517,17.5466379 C48.8609483,17.5466379 49.1478448,17.4368103 49.3663793,17.2182759 L51.8285345,14.7561207 C52.4157759,15.1461207 53.0792241,15.4307759 53.7931034,15.5764655 L53.7931034,19.0517241 C53.7931034,19.6714655 54.2940517,20.1724138 54.9137931,20.1724138 C55.5335345,20.1724138 56.0344828,19.6714655 56.0344828,19.0517241 L56.0344828,15.5764655 C56.7483621,15.4307759 57.4118103,15.1461207 57.9990517,14.7561207 L60.4612069,17.2182759 C60.6797414,17.4368103 60.9666379,17.5466379 61.2535345,17.5466379 C61.540431,17.5466379 61.8273276,17.4368103 62.0458621,17.2182759 C62.4840517,16.7800862 62.4840517,16.0718103 62.0458621,15.6336207 L59.5837069,13.1714655 C59.9737069,12.5842241 60.2583621,11.9207759 60.4040517,11.2068966 L63.8793103,11.2068966 C64.4990517,11.2068966 65,10.7059483 65,10.0862069 C65,9.46646552 64.4990517,8.96551724 63.8793103,8.96551724 Z M54.9137931,13.4482759 C53.0601724,13.4482759 51.5517241,11.9398276 51.5517241,10.0862069 C51.5517241,8.23258621 53.0601724,6.72413793 54.9137931,6.72413793 C56.7674138,6.72413793 58.2758621,8.23258621 58.2758621,10.0862069 C58.2758621,11.9398276 56.7674138,13.4482759 54.9137931,13.4482759 Z" id="Shape"></path>
                <path d="M63.8793103,62.7586207 L60.009569,62.7586207 C58.5067241,60.6371552 52.0593966,53.7931034 32.420431,53.7931034 C31.3064655,53.7931034 30.2586207,53.8211207 29.137931,53.8625862 C29.137931,53.8614655 29.137931,53.8603448 29.137931,53.8603448 L23.5512931,32.7151724 C24.2539655,31.6975862 25.3051724,30.9523276 26.5121552,30.6284483 C27.8581034,30.2675862 29.2847414,30.4513793 30.4928448,31.1506897 C30.5085345,31.1596552 30.5365517,31.1618966 30.5533621,31.1708621 C30.600431,31.1955172 30.6564655,31.2123276 30.7068966,31.2291379 C30.7618103,31.2481897 30.8189655,31.2672414 30.875,31.2773276 C30.8918103,31.2806897 30.9075,31.2885345 30.9243103,31.2907759 C30.9736207,31.2975 31.022931,31.3008621 31.0711207,31.3008621 C31.084569,31.3008621 31.0968966,31.2963793 31.1092241,31.2952586 C31.1518103,31.2941379 31.1932759,31.2851724 31.2358621,31.2784483 C31.2963793,31.2694828 31.3557759,31.2593966 31.4140517,31.2403448 C31.4543966,31.2268966 31.4925,31.2100862 31.5317241,31.1921552 C31.59,31.1652586 31.6449138,31.135 31.6987069,31.0991379 C31.7166379,31.0868103 31.7368103,31.0812069 31.7536207,31.0688793 C31.770431,31.0565517 31.7805172,31.0386207 31.7950862,31.0251724 C31.8443966,30.9837069 31.8881034,30.9366379 31.929569,30.8862069 C31.9564655,30.8537069 31.9833621,30.8223276 32.0057759,30.7875862 C32.0169828,30.7707759 32.0315517,30.7584483 32.0416379,30.7405172 C32.7375862,29.5335345 33.8638793,28.6694828 35.2098276,28.3086207 C36.5546552,27.95 37.9622414,28.1326724 39.1703448,28.8308621 C39.5625862,29.0561207 40.054569,29.0247414 40.412069,28.7490517 C40.7718103,28.4733621 40.9298276,28.0082759 40.8121552,27.5700862 C39.4953448,22.6536207 36.3428448,18.5451724 31.9351724,16.0012069 C27.8536207,13.6443966 23.1489655,12.9125862 18.5743103,13.8606897 L17.6900862,10.5613793 C17.5287069,9.96293103 16.9156897,9.60767241 16.3172414,9.76905172 C15.7187931,9.92931034 15.3635345,10.5434483 15.5249138,11.1418966 L16.4091379,14.4412069 C11.9723276,15.9093103 8.2662069,18.8937069 5.90939655,22.9752586 C3.36431034,27.382931 2.68853448,32.5168103 4.00646552,37.4310345 C4.12301724,37.8692241 4.49396552,38.1931034 4.94224138,38.2513793 C4.99155172,38.2581034 5.04086207,38.2614655 5.08905172,38.2614655 C5.48577586,38.2614655 5.85784483,38.0507759 6.05956897,37.7011207 C7.49741379,35.2087069 10.6969828,34.3536207 13.1882759,35.7914655 C13.2039655,35.800431 13.2230172,35.8026724 13.2387069,35.8116379 C13.2857759,35.8362931 13.3362069,35.8531034 13.3877586,35.8699138 C13.4426724,35.8889655 13.4964655,35.9080172 13.5536207,35.9181034 C13.570431,35.9214655 13.585,35.9293103 13.6018103,35.9315517 C13.6511207,35.9382759 13.700431,35.9416379 13.7486207,35.9416379 C13.762069,35.9416379 13.7732759,35.9371552 13.7867241,35.9371552 C13.8293103,35.9360345 13.8707759,35.927069 13.9122414,35.9203448 C13.9727586,35.9113793 14.0332759,35.9012931 14.0915517,35.8822414 C14.1318966,35.8687931 14.1688793,35.8519828 14.2081034,35.8340517 C14.2675,35.8071552 14.3224138,35.7768966 14.3762069,35.7399138 C14.3930172,35.7275862 14.4143103,35.7231034 14.43,35.7096552 C14.4456897,35.6973276 14.4557759,35.6805172 14.4703448,35.667069 C14.5196552,35.6244828 14.5644828,35.5774138 14.607069,35.5258621 C14.6339655,35.4933621 14.6597414,35.4631034 14.6832759,35.4272414 C14.6944828,35.410431 14.7090517,35.3981034 14.7191379,35.3801724 C16.0852586,33.0132759 19.0326724,32.1458621 21.4623276,33.2968103 L27.0075,53.9892241 C11.5968966,55.1121552 6.33077586,60.8377586 4.98594828,62.7586207 L1.12068966,62.7586207 C0.500948276,62.7586207 0,63.259569 0,63.8793103 C0,64.4990517 0.500948276,65 1.12068966,65 L5.60344828,65 L59.3965517,65 L63.8793103,65 C64.4990517,65 65,64.4990517 65,63.8793103 C65,63.259569 64.4990517,62.7586207 63.8793103,62.7586207 Z M25.9731034,28.4632759 C24.8266379,28.7703448 23.7922414,29.332931 22.9315517,30.1028448 L21.1485345,23.4481897 L19.1996552,16.1737931 C19.2680172,16.1782759 19.3352586,16.1760345 19.4047414,16.1838793 C19.4843103,16.1928448 19.565,16.202931 19.6456897,16.2175 C19.8149138,16.2466379 19.9863793,16.2881034 20.1589655,16.3385345 C20.229569,16.3587069 20.3001724,16.3743966 20.3707759,16.397931 C20.6128448,16.4786207 20.8582759,16.5761207 21.1059483,16.6960345 C21.1350862,16.7106034 21.1642241,16.7296552 21.1933621,16.7442241 C21.4130172,16.8540517 21.6337931,16.979569 21.854569,17.1196552 C21.9386207,17.1734483 22.0237931,17.2339655 22.1089655,17.2911207 C22.2793103,17.4065517 22.4496552,17.5287069 22.62,17.6609483 C22.7118966,17.7326724 22.8049138,17.8066379 22.8968103,17.8828448 C23.0705172,18.0262931 23.2442241,18.1809483 23.417931,18.3423276 C23.4997414,18.4185345 23.5815517,18.4902586 23.6622414,18.5698276 C23.9143966,18.8163793 24.1665517,19.0752586 24.4153448,19.3565517 C24.6932759,19.6703448 24.9644828,20.0031897 25.2300862,20.3494828 C25.3175,20.4626724 25.4015517,20.5837069 25.4878448,20.7013793 C25.6649138,20.9412069 25.8397414,21.1855172 26.0112069,21.4399138 C26.1075862,21.5833621 26.2028448,21.7312931 26.2969828,21.8781034 C26.4538793,22.1224138 26.6074138,22.3712069 26.7575862,22.6267241 C26.8506034,22.7836207 26.9425,22.9405172 27.0321552,23.1007759 C27.184569,23.3719828 27.3325,23.6499138 27.4781897,23.9312069 C27.5566379,24.0825 27.6362069,24.230431 27.7135345,24.3850862 C27.8962069,24.7537931 28.0721552,25.1325862 28.2425,25.5169828 C28.275,25.5898276 28.3097414,25.6593103 28.3422414,25.7332759 C28.5406034,26.1905172 28.73,26.6600862 28.9115517,27.1363793 C28.9698276,27.2887931 29.0225,27.4468103 29.0785345,27.6014655 C29.1681897,27.8480172 29.2544828,28.097931 29.3385345,28.3489655 C28.2368966,28.1281897 27.090431,28.162931 25.9731034,28.4632759 Z M30.8189655,17.9422414 C34.0499138,19.807069 36.515431,22.6244828 37.9241379,26.0100862 C36.8426724,25.8106034 35.7242241,25.8487069 34.6326724,26.1434483 C33.4626724,26.4561207 32.4103448,27.0355172 31.539569,27.8289655 C31.4017241,27.4109483 31.2526724,27.0007759 31.1013793,26.5928448 C31.0767241,26.5256034 31.0543103,26.455 31.0285345,26.3877586 C30.8312931,25.8655172 30.6217241,25.3544828 30.4031897,24.8535345 C30.337069,24.7011207 30.2653448,24.5543103 30.1981034,24.4041379 C30.0412069,24.0578448 29.882069,23.7137931 29.7162069,23.3787069 C29.6287931,23.2016379 29.5368966,23.0290517 29.4472414,22.8564655 C29.2914655,22.5561207 29.1323276,22.2613793 28.9698276,21.9722414 C28.8712069,21.7974138 28.7714655,21.6248276 28.6694828,21.4544828 C28.5036207,21.1743103 28.3332759,20.9008621 28.159569,20.6318966 C28.0575862,20.4727586 27.9567241,20.3136207 27.8525,20.1600862 C27.6619828,19.8776724 27.4658621,19.6053448 27.2675,19.3375 C27.1756034,19.2131034 27.0859483,19.0842241 26.992931,18.9631897 C26.6993103,18.5821552 26.4000862,18.214569 26.0930172,17.8693966 C25.7321552,17.4614655 25.3668103,17.0871552 24.9981034,16.7408621 C24.8658621,16.6164655 24.7325,16.5144828 24.5991379,16.397931 C24.3615517,16.1894828 24.1239655,15.9776724 23.8841379,15.7961207 C23.8617241,15.7793103 23.840431,15.7568966 23.8180172,15.7400862 C26.2555172,15.942931 28.6392241,16.6825862 30.8189655,17.9422414 Z M5.73681034,34.6382759 C5.26163793,31.0005172 5.99008621,27.3257759 7.85603448,24.0948276 C9.11456897,21.9139655 10.807931,20.0816379 12.8173276,18.6875 C12.8072414,18.7121552 12.7993966,18.7401724 12.7893103,18.7648276 C12.6671552,19.0550862 12.562931,19.3711207 12.4564655,19.6849138 C12.4049138,19.8384483 12.3443966,19.9807759 12.2962069,20.1399138 C12.1505172,20.6251724 12.0205172,21.1339655 11.9106897,21.6685345 C11.8187931,22.1201724 11.7437069,22.5875 11.6798276,23.0615517 C11.6585345,23.2206897 11.6450862,23.385431 11.6271552,23.5468103 C11.5912931,23.8684483 11.5576724,24.1923276 11.5341379,24.5240517 C11.5206897,24.717931 11.5117241,24.9151724 11.5027586,25.1124138 C11.4881897,25.4217241 11.4781034,25.7332759 11.4736207,26.0493103 C11.4713793,26.2577586 11.4702586,26.4662069 11.4725,26.6768966 C11.4758621,26.9962931 11.4859483,27.317931 11.5005172,27.642931 C11.5094828,27.8502586 11.5173276,28.0564655 11.5307759,28.2649138 C11.5531897,28.6224138 11.5856897,28.9821552 11.6215517,29.3441379 C11.6394828,29.524569 11.6518103,29.7016379 11.6731034,29.8831897 C11.7347414,30.4233621 11.8075862,30.9657759 11.8972414,31.5137931 C11.909569,31.5866379 11.9252586,31.6606034 11.9375862,31.734569 C12.010431,32.1626724 12.0866379,32.5918966 12.1762931,33.0222414 C9.89905172,32.5246552 7.50413793,33.132069 5.73681034,34.6382759 Z M14.3381034,32.37 C14.2831897,32.0999138 14.2316379,31.8298276 14.1834483,31.5619828 C14.1565517,31.4118103 14.1262931,31.2605172 14.1027586,31.1114655 C14.0209483,30.6037931 13.9492241,30.1006034 13.892069,29.6007759 C13.8831034,29.5268103 13.8797414,29.4550862 13.8718966,29.3811207 C13.827069,28.9563793 13.7889655,28.5338793 13.7631897,28.1169828 C13.7531034,27.95 13.7475,27.7875 13.7407759,27.6216379 C13.7262069,27.3 13.715,26.9794828 13.7116379,26.6634483 C13.7093966,26.4830172 13.7116379,26.3048276 13.7127586,26.1266379 C13.7161207,25.8262931 13.7239655,25.530431 13.7385345,25.237931 C13.7463793,25.0653448 13.7542241,24.8927586 13.7665517,24.7224138 C13.7878448,24.4142241 13.8181034,24.1127586 13.8517241,23.8146552 C13.8674138,23.6723276 13.8797414,23.5277586 13.8987931,23.3876724 C13.9559483,22.9550862 14.0243103,22.5292241 14.1083621,22.1190517 C14.1834483,21.7503448 14.2719828,21.4006897 14.3672414,21.0611207 C14.3986207,20.9512931 14.4333621,20.8481897 14.4658621,20.7406034 C14.5353448,20.5142241 14.6093103,20.2934483 14.6877586,20.0816379 C14.7292241,19.969569 14.772931,19.8597414 14.8166379,19.7521552 C14.8984483,19.5526724 14.9847414,19.3610345 15.0732759,19.1772414 C15.1181034,19.0842241 15.1618103,18.9889655 15.2088793,18.8993103 C15.3287931,18.6718103 15.4543103,18.4577586 15.5865517,18.2571552 C15.6078448,18.2257759 15.6257759,18.1887931 15.647069,18.1574138 C15.8006034,17.9310345 15.9631034,17.727069 16.1312069,17.5365517 C16.185,17.4749138 16.2421552,17.4233621 16.2981897,17.3650862 C16.4181034,17.2418103 16.5402586,17.1252586 16.6657759,17.0199138 C16.7341379,16.9627586 16.8036207,16.9100862 16.8742241,16.8585345 C16.9268966,16.8193103 16.982931,16.7890517 17.0367241,16.7531897 L20.7708621,30.6867241 C18.4868966,30.2137931 16.0942241,30.8402586 14.3381034,32.37 Z M7.96810345,62.7586207 C10.5131897,60.3267241 17.177931,56.0344828 32.5,56.0344828 C47.757069,56.0344828 54.4498276,60.3267241 57.0150862,62.7586207 L7.96810345,62.7586207 Z" id="Shape"></path>
            </g>
        </g>
    </g>
</svg>