<?xml version="1.0" encoding="UTF-8"?>
<svg width="45px" height="62px" viewBox="0 0 45 62" version="1.1" xmlns="http://www.w3.org/2000/svg" xmlns:xlink="http://www.w3.org/1999/xlink">
    <title>6B8624ED-A7F7-44B6-8065-2769D1175706@1x</title>
    <g id="Page-1" stroke="none" stroke-width="1" fill="none" fill-rule="evenodd">
        <g id="tixxly-home" transform="translate(-559.000000, -830.000000)" fill="#4B5563" fill-rule="nonzero">
            <g id="Icon-Location" transform="translate(559.000000, 830.000000)">
                <path d="M22.2809044,36.0738453 C22.5822271,36.0738453 22.8697569,35.9454648 23.0702851,35.7215948 C23.6018438,35.1295593 36.0738453,21.1456393 36.0738453,13.7929408 C36.0738453,6.18772546 29.8861198,-3.55271368e-15 22.2809044,-3.55271368e-15 C14.6756891,-3.55271368e-15 8.4879636,6.18772546 8.4879636,13.7929408 C8.4879636,21.1456393 20.9599651,35.1295593 21.4915238,35.7215948 C21.692052,35.9454648 21.9795817,36.0738453 22.2809044,36.0738453 Z M22.2809044,2.1219909 C28.7158418,2.1219909 33.9518544,7.35800344 33.9518544,13.7929408 C33.9518544,18.8507062 26.1524768,28.9237969 22.2809044,33.4054417 C18.409332,28.9248579 10.6099545,18.8538891 10.6099545,13.7929408 C10.6099545,7.35800344 15.845967,2.1219909 22.2809044,2.1219909 Z" id="Shape"></path>
                <path d="M31.8298635,13.7929408 C31.8298635,8.52722043 27.5466249,4.2439818 22.2809044,4.2439818 C17.016245,4.2439818 12.7319454,8.52722043 12.7319454,13.7929408 C12.7319454,19.0586613 17.016245,23.3418999 22.2809044,23.3418999 C27.5466249,23.3418999 31.8298635,19.0586613 31.8298635,13.7929408 Z M14.8539363,13.7929408 C14.8539363,9.6985594 18.185462,6.3659727 22.2809044,6.3659727 C26.3752859,6.3659727 29.7078726,9.6985594 29.7078726,13.7929408 C29.7078726,17.8873223 26.3752859,21.219909 22.2809044,21.219909 C18.185462,21.219909 14.8539363,17.8873223 14.8539363,13.7929408 Z" id="Shape"></path>
                <path d="M39.2568316,50.9277816 L5.30497725,50.9277816 C2.37981279,50.9277816 -1.98951966e-13,53.3075944 -1.98951966e-13,56.2327588 C-1.98951966e-13,59.1579233 2.37981279,61.5377361 5.30497725,61.5377361 L39.2568316,61.5377361 C39.8435621,61.5377361 40.3178271,61.0634711 40.3178271,60.4767406 C40.3178271,59.8900101 39.8435621,59.4157452 39.2568316,59.4157452 L5.30497725,59.4157452 C3.55009077,59.4157452 2.1219909,57.9876453 2.1219909,56.2327588 C2.1219909,54.4778724 3.55009077,53.0497725 5.30497725,53.0497725 L39.2568316,53.0497725 C42.1819961,53.0497725 44.5618089,50.6699597 44.5618089,47.7447952 C44.5618089,44.8196308 42.1819961,42.439818 39.2568316,42.439818 L5.30497725,42.439818 C3.55009077,42.439818 2.1219909,41.0117181 2.1219909,39.2568316 C2.1219909,37.5019452 3.55009077,36.0738453 5.30497725,36.0738453 L18.0369226,36.0738453 C18.6225921,36.0738453 19.0979181,35.5995803 19.0979181,35.0128498 C19.0979181,34.4261194 18.6225921,33.9518544 18.0369226,33.9518544 L5.30497725,33.9518544 C2.37981279,33.9518544 -1.98951966e-13,36.3316672 -1.98951966e-13,39.2568316 C-1.98951966e-13,42.1819961 2.37981279,44.5618089 5.30497725,44.5618089 L39.2568316,44.5618089 C41.0117181,44.5618089 42.439818,45.9899088 42.439818,47.7447952 C42.439818,49.4996817 41.0117181,50.9277816 39.2568316,50.9277816 Z" id="Path"></path>
            </g>
        </g>
    </g>
</svg>